<svg width="131" height="28" viewBox="0 0 131 28" fill="none" xmlns="http://www.w3.org/2000/svg">
<g clip-path="url(#clip0)">
<path d="M3.57824 8.16846L1.16841 0.125244H0L2.70194 9.11779H4.45455L7.12519 0.208702L7.14605 0.125244H5.98808L3.57824 8.16846Z" fill="white"/>
<path d="M129.088 0.125178H129.057L126.97 4.07898L124.894 0.146043L124.873 0.114746H123.621L126.417 5.40387V9.12816H127.523V5.40387L130.267 0.208636L130.319 0.114746L129.088 0.125178Z" fill="white"/>
<path d="M22.2727 9.12816H27.927V8.01191H23.389V5.0909H26.1535V3.97466H23.389V1.23099H27.927V0.114746H22.2727V9.12816Z" fill="white"/>
<path d="M107.18 0.114746H106.064V9.12816H111.468V8.01191H107.18V0.114746Z" fill="white"/>
<path d="M48.8957 9.11779L47.4873 5.48739C47.9709 5.25991 48.3699 4.88483 48.6267 4.41615C48.8836 3.94747 48.985 3.40937 48.9165 2.87934C48.9165 1.15803 48.0402 0.125244 46.5797 0.125244H43.0745V9.12822H44.1803V5.64387H46.3502L47.696 9.12822L48.8957 9.11779ZM44.1803 1.24149H46.5797C47.3934 1.24149 47.8003 1.79439 47.8003 2.87934C47.8003 3.96429 47.3934 4.53806 46.5797 4.53806H44.1803V1.24149Z" fill="white"/>
<path d="M68.5186 3.97466H65.1803V0.114746H64.0641V9.12816H65.1803V5.0909H68.5186V9.12816H69.6349V0.114746H68.5186V3.97466Z" fill="white"/>
<path d="M87.8495 3.46163e-05C87.4332 -0.0259864 87.0169 0.0485905 86.6356 0.217461C86.2542 0.386331 85.9192 0.64453 85.6587 0.970228C84.9778 2.05984 84.6702 3.34153 84.7824 4.6215C84.7752 5.32307 84.8487 6.02316 85.0015 6.70793C85.1202 7.22758 85.3438 7.71748 85.6587 8.14758C85.9284 8.50881 86.2881 8.79299 86.7019 8.97172C87.0709 9.12969 87.4691 9.20791 87.8703 9.20123C88.2717 9.20886 88.6701 9.13061 89.0387 8.97172C89.4526 8.79299 89.8123 8.50881 90.082 8.14758C90.3948 7.71632 90.6183 7.22684 90.7392 6.70793C90.8925 6.02325 90.9661 5.3231 90.9583 4.6215C91.0558 3.33567 90.7297 2.05328 90.0298 0.970228C89.7721 0.644016 89.4391 0.385281 89.0593 0.216279C88.6795 0.0472776 88.2643 -0.0269317 87.8495 3.46163e-05ZM87.8495 1.11628C88.0947 1.09288 88.3418 1.13011 88.5692 1.22471C88.7966 1.31931 88.9973 1.46836 89.1535 1.65875C89.6701 2.55574 89.8961 3.5908 89.8003 4.6215C89.8864 5.63161 89.6607 6.64385 89.1535 7.52165C88.9929 7.71075 88.7931 7.86266 88.5679 7.96685C88.3427 8.07103 88.0976 8.12499 87.8495 8.12499C87.6014 8.12499 87.3562 8.07103 87.1311 7.96685C86.9059 7.86266 86.7061 7.71075 86.5454 7.52165C86.0308 6.64653 85.8011 5.63299 85.8882 4.6215C85.8024 3.58488 86.0471 2.54772 86.5872 1.65875C86.7434 1.46836 86.9441 1.31931 87.1715 1.22471C87.3989 1.13011 87.646 1.09288 87.8912 1.11628" fill="white"/>
<path d="M35.8137 28L34.4888 26.2161H33.5812V28H33.0805V23.7541H34.5723C34.749 23.7341 34.9279 23.7529 35.0966 23.8092C35.2653 23.8655 35.4196 23.9581 35.5488 24.0803C35.678 24.2025 35.7789 24.3515 35.8445 24.5168C35.9101 24.6821 35.9387 24.8597 35.9285 25.0373C35.9349 25.3049 35.8509 25.5669 35.6899 25.7808C35.529 25.9947 35.3006 26.1481 35.0417 26.2161L36.3979 28.0522L35.8137 28ZM33.5812 25.7675H34.5618C34.7694 25.7675 34.9684 25.6851 35.1151 25.5384C35.2618 25.3916 35.3443 25.1926 35.3443 24.9851C35.3443 24.7776 35.2618 24.5786 35.1151 24.4319C34.9684 24.2851 34.7694 24.2027 34.5618 24.2027H33.5812V25.7675Z" fill="white"/>
<path d="M43.3353 24.2027H41.1237V25.5068H42.8241V25.9553H41.1237V27.5515H43.4188V28.0001H40.6229V23.7542H43.3353V24.2027Z" fill="white"/>
<path d="M48.301 27.5515H50.3145V28.0001H47.7899V23.7542H48.301V27.5515Z" fill="white"/>
<path d="M57.1684 27.1236H55.082L54.7273 27.9791H54.2474L56.0939 23.6602H56.2712L58.1177 27.9791H57.5857L57.1684 27.1236ZM56.1252 24.5782L55.2802 26.6646H56.9806L56.1252 24.5782Z" fill="white"/>
<path d="M64.8778 28.0001L63.7302 26.2579L62.5723 28.0001H61.9881L63.4486 25.8302L62.0924 23.7542H62.6662L63.7302 25.4129L64.7735 23.7542H65.3577L64.0223 25.8302L65.462 28.0001H64.8778Z" fill="white"/>
<path d="M76.0402 25.0373C76.0428 25.212 76.0081 25.3851 75.9386 25.5453C75.8691 25.7055 75.7663 25.8491 75.6371 25.9665C75.5078 26.0839 75.3551 26.1725 75.189 26.2263C75.0228 26.2801 74.8472 26.298 74.6736 26.2788H73.6304V28.0523H73.1297V23.7542H74.6215C74.8026 23.726 74.9878 23.7385 75.1634 23.791C75.3391 23.8435 75.5008 23.9345 75.6368 24.0575C75.7727 24.1805 75.8795 24.3323 75.9493 24.5018C76.0191 24.6713 76.0502 24.8543 76.0402 25.0373ZM73.6826 24.2549V25.8302H74.6632C74.7742 25.843 74.8867 25.8322 74.9933 25.7984C75.0999 25.7647 75.1981 25.7088 75.2815 25.6344C75.365 25.56 75.4317 25.4689 75.4775 25.3669C75.5232 25.2649 75.5468 25.1543 75.5468 25.0426C75.5468 24.9308 75.5232 24.8203 75.4775 24.7183C75.4317 24.6163 75.365 24.5251 75.2815 24.4507C75.1981 24.3763 75.0999 24.3204 74.9933 24.2867C74.8867 24.253 74.7742 24.2421 74.6632 24.2549H73.6826Z" fill="white"/>
<path d="M82.4769 27.1238H80.3905L80.0358 27.9792H79.5037L81.3711 23.6812H81.5589L83.3949 28.0001H82.8629L82.4769 27.1238ZM81.4337 24.5783L80.5887 26.6648H82.2891L81.4337 24.5783Z" fill="white"/>
<path d="M90.4158 28L89.1014 26.2161H88.1937V28H87.693V23.7541H89.1848C89.3615 23.7341 89.5405 23.7529 89.7091 23.8092C89.8778 23.8655 90.0321 23.9581 90.1613 24.0803C90.2905 24.2025 90.3914 24.3515 90.457 24.5168C90.5226 24.6821 90.5512 24.8597 90.541 25.0373C90.5488 25.3067 90.464 25.5707 90.3007 25.7852C90.1375 25.9997 89.9056 26.1518 89.6438 26.2161L91 28.0522L90.4158 28ZM88.1937 25.7675H89.1639C89.3715 25.7675 89.5705 25.6851 89.7172 25.5384C89.8639 25.3916 89.9464 25.1926 89.9464 24.9851C89.9464 24.7776 89.8639 24.5786 89.7172 24.4319C89.5705 24.2851 89.3715 24.2027 89.1639 24.2027H88.1937V25.7675Z" fill="white"/>
<path d="M95.225 23.7542H95.7258V28.0001H95.225V23.7542ZM98.5216 28.0001H97.8852L95.7988 25.7258L97.7079 23.7542H98.3547L96.456 25.7258L98.5216 28.0001Z" fill="white"/>
</g>
<defs>
<clipPath id="clip0">
<rect width="130.319" height="28" fill="white"/>
</clipPath>
</defs>
</svg>
