<?xml version="1.0" encoding="UTF-8"?> <svg xmlns="http://www.w3.org/2000/svg" width="108" height="18" viewBox="0 0 108 18" fill="none"> <g clip-path="url(#clip0)"> <path d="M23.8798 0H20.5488V2.88177H23.8798V0Z" fill="#D8222A"></path> <path d="M108.001 14.6749H104.67V17.5567H108.001V14.6749Z" fill="#D8222A"></path> <path d="M99.3206 17.5567V7.2266H97.6785V4.4335H99.3206V0H102.652V4.4335H104.669V7.2266H102.652V17.5567H99.3206ZM89.8436 6.96059C88.6238 6.96059 87.6855 7.35961 86.9348 8.15764C86.1842 8.95567 85.8089 9.8867 85.8089 10.9951C85.8089 12.1034 86.1373 13.0345 86.9348 13.8325C87.6855 14.5862 88.6707 14.9852 89.8905 14.9852C91.0634 14.9852 92.0487 14.6305 92.7993 13.8325C93.55 13.0345 93.9253 12.1034 93.9253 10.9951C93.9253 9.8867 93.55 8.95567 92.7993 8.15764C92.0017 7.35961 91.0634 6.96059 89.8436 6.96059ZM89.8436 3.99015C91.9548 3.99015 93.6907 4.69951 95.0982 6.07389C96.5056 7.44828 97.2094 9.08867 97.2094 11.0394C97.2094 12.9901 96.5056 14.6305 95.0982 16.0049C93.6907 17.3793 91.9079 18.0443 89.8436 18.0443C87.7324 18.0443 85.9965 17.3793 84.5891 16.0049C83.1816 14.6305 82.4778 12.9901 82.4778 11.0394C82.4778 9.08867 83.1816 7.44828 84.5891 6.07389C85.9965 4.65517 87.7324 3.99015 89.8436 3.99015ZM77.8332 13.3005H81.5864C81.0235 14.7192 80.179 15.8719 79.0061 16.7143C77.8332 17.5567 76.3788 18 74.7367 18C72.5317 18 70.702 17.335 69.2476 16.0049C67.7932 14.6749 67.0426 12.9901 67.0426 10.9064C67.0426 8.95567 67.7463 7.31527 69.2007 5.98522C70.6551 4.65517 72.4379 3.99015 74.596 3.99015C76.3319 3.99015 77.7863 4.4335 79.053 5.27586C80.2728 6.16256 81.1642 7.31527 81.6334 8.77833H77.8801C77.5517 8.20197 77.0825 7.75862 76.5195 7.44828C75.9566 7.13793 75.2997 7.00493 74.596 6.96059C73.3293 6.96059 72.2971 7.35961 71.5465 8.1133C70.7958 8.86699 70.4205 9.79803 70.4205 10.9064C70.4205 12.0591 70.7958 13.0345 71.5465 13.8325C72.2971 14.5862 73.3293 14.9852 74.596 14.9852C75.2997 14.9852 75.9566 14.8522 76.5195 14.5862C77.0356 14.3202 77.5048 13.8768 77.8332 13.3005ZM60.3805 17.5567V4.4335H63.4301V5.63054H63.477C63.8054 5.09852 64.2276 4.65517 64.8375 4.38916C65.4005 4.12315 66.0573 3.99015 66.7142 4.03448V7.0936C65.7289 7.0936 64.9783 7.35961 64.4622 7.89163C63.9461 8.42365 63.7116 9.31035 63.7116 10.5074V17.601H60.3805V17.5567ZM47.6195 9.57635H55.1729C54.9383 8.77833 54.4692 8.1133 53.8123 7.66995C53.1555 7.18227 52.358 6.96059 51.5135 6.96059C50.5752 6.96059 49.7776 7.2266 49.0738 7.66995C48.3701 8.15764 47.901 8.77833 47.6195 9.57635ZM58.5977 12.3695H47.7133C47.901 13.1675 48.3232 13.8325 49.0269 14.2759C49.6838 14.7635 50.4813 14.9852 51.3727 14.9852C52.0295 14.9852 52.6394 14.8966 53.1555 14.6749C53.6716 14.4532 54.1407 14.1429 54.4692 13.7438H58.2224C57.6594 15.0739 56.768 16.0936 55.5482 16.8473C54.3753 17.601 53.0148 17.9557 51.4665 17.9557C49.3553 17.9557 47.6195 17.2906 46.212 15.9606C44.8045 14.6305 44.1008 13.0345 44.1008 11.0837C44.1008 9.13301 44.8045 7.44828 46.212 6.07389C47.6195 4.69951 49.4023 3.99015 51.5135 3.99015C53.6247 3.99015 55.3136 4.65517 56.6273 5.98522C57.9409 7.31527 58.6447 9 58.6447 10.9507C58.6447 11.2611 58.6447 11.5271 58.5977 11.7488C58.5977 12.0148 58.5977 12.1921 58.5977 12.3695ZM36.2189 17.5567L30.5891 4.4335H34.2954L37.5326 13.0788L40.7229 4.4335H44.4761L38.8462 17.601H36.2189V17.5567ZM26.3197 0H29.6507V17.5567H26.3197V0ZM20.5491 4.4335H23.8801V17.601H20.5491V4.4335ZM5.01998 17.5567L0 4.4335H3.51868L6.09904 12.4138L8.39791 4.4335H11.0252L13.3241 12.4138L15.9044 4.4335H19.4231L14.4031 17.5567H12.3388L9.71156 9L7.08427 17.5567H5.01998Z" fill="#212121"></path> </g> <defs> <clipPath id="clip0"> <rect width="108" height="18" fill="white"></rect> </clipPath> </defs> </svg> 