<?xml version="1.0" encoding="UTF-8"?> <svg xmlns="http://www.w3.org/2000/svg" width="40" height="40" viewBox="0 0 40 40" fill="none"> <rect x="0.5" y="0.5" width="39" height="39" rx="19.5" fill="white"></rect> <g clip-path="url(#clip0)"> <path fill-rule="evenodd" clip-rule="evenodd" d="M26.3774 13.6158C24.6853 11.9299 22.435 11.001 20.0376 11C15.0976 11 11.0772 15.0011 11.0752 19.9188C11.0745 21.4908 11.4872 23.0254 12.2715 24.3781L11 29L15.7511 27.7596C17.0603 28.4703 18.5341 28.8449 20.034 28.8453H20.0378C24.9772 28.8453 28.9981 24.8439 29 19.926C29.001 17.5426 28.0696 15.3017 26.3774 13.6158ZM20.0376 27.339H20.0346C18.6979 27.3384 17.387 26.9809 16.2432 26.3056L15.9713 26.1449L13.1519 26.881L13.9044 24.1453L13.7272 23.8648C12.9815 22.6844 12.5878 21.3201 12.5884 19.9194C12.59 15.8319 15.9317 12.5064 20.0406 12.5064C22.0303 12.5071 23.9007 13.2792 25.3071 14.6805C26.7135 16.0818 27.4875 17.9445 27.4869 19.9254C27.4851 24.0132 24.1435 27.339 20.0376 27.339Z" fill="#212121" stroke="white" stroke-width="0.2"></path> <path d="M22.2491 21.0055C22.4296 21.0764 23.3973 21.5892 23.5941 21.6953C23.7909 21.8015 23.9222 21.8545 23.9713 21.9429C24.0206 22.0315 24.0206 22.4559 23.8566 22.9512C23.6924 23.4464 22.9062 23.8984 22.528 23.9594C22.1888 24.0139 21.7598 24.0367 21.2882 23.8753C21.0023 23.7776 20.6357 23.6473 20.1661 23.4286C18.1917 22.5104 16.9021 20.3688 16.8037 20.2273L16.8019 20.2248C16.6972 20.0742 16 19.0716 16 18.0341C16 16.9905 16.5084 16.4776 16.6888 16.2654C16.8693 16.053 17.0825 16 17.2137 16C17.345 16 17.4763 16.0013 17.591 16.0074C17.7119 16.0139 17.874 15.9581 18.0339 16.3713C18.1979 16.796 18.5915 17.8396 18.6406 17.9457C18.6899 18.0517 18.7228 18.1756 18.6571 18.3171C18.5915 18.4585 18.3782 18.7573 18.1651 19.0423C18.0778 19.159 17.964 19.2627 18.0787 19.475C18.1936 19.6872 18.5886 20.3815 19.1737 20.9437C19.9256 21.666 20.5598 21.89 20.7566 21.996C20.9535 22.1022 21.0682 22.0845 21.1831 21.9429C21.2979 21.8015 21.6751 21.3239 21.8064 21.1117C21.9375 20.8996 22.0688 20.9348 22.2491 21.0055Z" fill="#212121"></path> </g> <rect x="0.5" y="0.5" width="39" height="39" rx="19.5" stroke="#EFEFEF"></rect> <defs> <clipPath id="clip0"> <rect width="18" height="18" fill="white" transform="translate(11 11)"></rect> </clipPath> </defs> </svg> 